<?xml version="1.0" encoding="UTF-8" standalone="no"?> <!-- Generator: Gravit.io --> <svg xmlns="http://www.w3.org/2000/svg" xmlns:xlink="http://www.w3.org/1999/xlink" style="isolation:isolate" viewBox="0 0 450 450" width="450" height="450"><defs><clipPath id="_clipPath_DHd8xnNWoA28LgtYjaB0UmlD7TQIG6FV"><rect width="450" height="450"></rect></clipPath></defs><g clip-path="url(#_clipPath_DHd8xnNWoA28LgtYjaB0UmlD7TQIG6FV)"><g id="Group"><path d=" M 51.526 235.842 C 51.526 365.232 225 431 225 431 C 225 431 398.474 366.24 398.474 235.842 L 398.474 51.526 C 355.702 51.526 225 19 225 19 C 225 19 94.255 51.526 51.526 51.526 L 51.526 235.842 Z " fill="rgb(197,202,233)"></path><path d=" M 398.474 235.842 C 398.474 365.232 225 431 225 431 L 225 19 C 225 19 355.745 51.526 398.474 51.526 L 398.474 235.842 Z " fill="rgb(159,168,218)"></path><path d=" M 355.105 235.842 C 355.105 314.155 262.351 365.991 224.957 383.696 C 187.736 366.023 94.895 314.198 94.895 235.842 L 94.895 90.612 C 140.334 83.717 198.437 70.121 225 63.637 C 251.563 70.121 309.709 83.717 355.105 90.612 L 355.105 235.842 Z " fill="rgb(244,67,54)"></path><path d=" M 355.105 236.178 C 355.105 314.491 262.351 366.283 224.957 384.032 L 225 63.973 C 251.563 70.413 309.709 84.053 355.105 90.959 L 355.105 236.178 Z " fill="rgb(229,57,53)"></path><path d=" M 84.053 84.053 C 84.053 90.016 79.174 94.895 73.211 94.895 C 67.247 94.895 62.368 90.016 62.368 84.053 C 62.368 78.089 67.247 73.211 73.211 73.211 C 79.174 73.211 84.053 78.089 84.053 84.053 Z M 159.947 62.368 C 159.947 68.332 155.068 73.211 149.105 73.211 C 143.142 73.211 138.263 68.332 138.263 62.368 C 138.263 56.405 143.142 51.526 149.105 51.526 C 155.068 51.526 159.947 56.405 159.947 62.368 Z M 235.842 40.684 C 235.842 46.647 230.963 51.526 225 51.526 C 219.037 51.526 214.158 46.647 214.158 40.684 C 214.158 34.721 219.037 29.842 225 29.842 C 230.963 29.842 235.842 34.721 235.842 40.684 Z M 84.053 149.105 C 84.053 155.068 79.174 159.947 73.211 159.947 C 67.247 159.947 62.368 155.068 62.368 149.105 C 62.368 143.142 67.247 138.263 73.211 138.263 C 79.174 138.263 84.053 143.142 84.053 149.105 Z M 84.053 214.158 C 84.053 220.121 79.174 225 73.211 225 C 67.247 225 62.368 220.121 62.368 214.158 C 62.368 208.195 67.247 203.316 73.211 203.316 C 79.174 203.316 84.053 208.195 84.053 214.158 Z M 94.895 279.211 C 94.895 285.174 90.016 290.053 84.053 290.053 C 78.089 290.053 73.211 285.174 73.211 279.211 C 73.211 273.247 78.089 268.368 84.053 268.368 C 90.016 268.368 94.895 273.247 94.895 279.211 Z M 127.421 333.421 C 127.421 339.384 122.542 344.263 116.579 344.263 C 110.616 344.263 105.737 339.384 105.737 333.421 C 105.737 327.458 110.616 322.579 116.579 322.579 C 122.542 322.579 127.421 327.458 127.421 333.421 Z M 181.632 376.789 C 181.632 382.753 176.753 387.632 170.789 387.632 C 164.826 387.632 159.947 382.753 159.947 376.789 C 159.947 370.826 164.826 365.947 170.789 365.947 C 176.753 365.947 181.632 370.826 181.632 376.789 Z " fill="rgb(159,168,218)"></path><path d=" M 387.632 84.053 C 387.632 90.016 382.753 94.895 376.789 94.895 C 370.826 94.895 365.947 90.016 365.947 84.053 C 365.947 78.089 370.826 73.211 376.789 73.211 C 382.753 73.211 387.632 78.089 387.632 84.053 Z M 311.737 62.368 C 311.737 68.332 306.858 73.211 300.895 73.211 C 294.932 73.211 290.053 68.332 290.053 62.368 C 290.053 56.405 294.932 51.526 300.895 51.526 C 306.858 51.526 311.737 56.405 311.737 62.368 Z M 387.632 149.105 C 387.632 155.068 382.753 159.947 376.789 159.947 C 370.826 159.947 365.947 155.068 365.947 149.105 C 365.947 143.142 370.826 138.263 376.789 138.263 C 382.753 138.263 387.632 143.142 387.632 149.105 Z M 387.632 214.158 C 387.632 220.121 382.753 225 376.789 225 C 370.826 225 365.947 220.121 365.947 214.158 C 365.947 208.195 370.826 203.316 376.789 203.316 C 382.753 203.316 387.632 208.195 387.632 214.158 Z M 376.789 279.211 C 376.789 285.174 371.911 290.053 365.947 290.053 C 359.984 290.053 355.105 285.174 355.105 279.211 C 355.105 273.247 359.984 268.368 365.947 268.368 C 371.911 268.368 376.789 273.247 376.789 279.211 Z M 344.263 333.421 C 344.263 339.384 339.384 344.263 333.421 344.263 C 327.458 344.263 322.579 339.384 322.579 333.421 C 322.579 327.458 327.458 322.579 333.421 322.579 C 339.384 322.579 344.263 327.458 344.263 333.421 Z M 290.053 376.789 C 290.053 382.753 285.174 387.632 279.211 387.632 C 273.247 387.632 268.368 382.753 268.368 376.789 C 268.368 370.826 273.247 365.947 279.211 365.947 C 285.174 365.947 290.053 370.826 290.053 376.789 Z " fill="rgb(121,134,203)"></path><path d=" M 225 244.949 L 355.105 156.478 L 355.105 113.109 L 225 201.581 L 225 244.949 Z " fill="rgb(255,205,210)"></path><path d=" M 225 201.581 L 106.203 282.355 C 111.514 293.116 118.127 303.184 125.892 312.333 L 224.957 244.949 L 225 201.581 Z M 181.632 149.105 L 159.947 176.211 L 138.263 149.105 L 159.947 122 L 181.632 149.105 Z " fill="rgb(255,255,255)"></path><path d=" M 311.737 279.211 L 290.053 306.316 L 268.368 279.211 L 290.053 252.105 L 311.737 279.211 Z " fill="rgb(255,205,210)"></path></g></g></svg> 